<svg xmlns="http://www.w3.org/2000/svg" width="16" height="16" viewBox="0 0 16 16">
  <path id="Icon_ionic-md-globe" data-name="Icon ionic-md-globe" d="M11.375,3.375a8,8,0,1,0,8,8A8,8,0,0,0,11.375,3.375Zm-.829,14.808A6.858,6.858,0,0,1,6.156,6.927a7.6,7.6,0,0,1,.077.93,2.966,2.966,0,0,0,.382,2.26,3.729,3.729,0,0,1,.362,1.08c.1.341.5.519.77.729.552.423,1.081.916,1.666,1.288.387.246.628.368.515.84A2.98,2.98,0,0,1,9.616,15a1.927,1.927,0,0,0,.321.861c.288.288.575.553.889.813C11.313,17.081,10.779,17.6,10.546,18.183Zm5.678-1.959a6.808,6.808,0,0,1-3.56,1.888,2.844,2.844,0,0,1,.842-1.129,2.865,2.865,0,0,0,.757-.937,6.506,6.506,0,0,1,.522-.893c.272-.419-.67-1.051-.975-1.184A10.052,10.052,0,0,1,12,12.839c-.435-.306-1.318.16-1.808-.054a9.462,9.462,0,0,1-1.811-1.244c-.6-.454-.574-.984-.574-1.654.472.017,1.144-.131,1.458.249.1.12.439.655.667.465.186-.155-.138-.779-.2-.925-.193-.451.439-.626.762-.932.422-.4,1.326-1.024,1.254-1.309s-.9-1.1-1.394-.969c-.073.019-.719.7-.844.8q0-.332.01-.663c0-.14-.26-.283-.248-.373.031-.227.664-.64.821-.821-.11-.069-.487-.392-.6-.345-.276.115-.588.194-.863.309A1.756,1.756,0,0,0,8.6,5.1a6.792,6.792,0,0,1,1.743-.506l.542.218.382.454.382.394.334.108.53-.5-.137-.357V4.59a6.782,6.782,0,0,1,2.9,1.146c-.155.014-.326.037-.518.061a1.723,1.723,0,0,0-.268-.1c.251.54.513,1.073.779,1.606.284.569.915,1.18,1.026,1.781.131.708.04,1.352.111,2.185a3.732,3.732,0,0,0,.9,1.714,1.812,1.812,0,0,0,.707.086A6.815,6.815,0,0,1,16.224,16.224Z" transform="translate(-3.375 -3.375)" fill="#f8f7f8" opacity="0.7"/>
</svg>
