<svg xmlns="http://www.w3.org/2000/svg" width="45" height="40.017" viewBox="0 0 60 40.017">
  <path id="Icon_ionic-ios-arrow-round-forward" data-name="Icon ionic-ios-arrow-round-forward" d="M46.138,12.018a2.723,2.723,0,0,0-.021,3.835L58.789,28.544H10.563a2.709,2.709,0,0,0,0,5.419h48.2L46.1,46.655a2.743,2.743,0,0,0,.021,3.835,2.7,2.7,0,0,0,3.814-.021L67.1,33.171h0a3.043,3.043,0,0,0,.563-.854,2.586,2.586,0,0,0,.208-1.042,2.716,2.716,0,0,0-.771-1.9L49.931,12.08A2.655,2.655,0,0,0,46.138,12.018Z" transform="translate(-7.875 -11.251)" fill="#fff" opacity="0.8"/>
</svg>
